# xmcd
#
# Track frame offsets:
#	150
#	12747
#	26062
#	40235
#	53545
#
# Disc length: 908 seconds
#
# Revision: 1
# Processed by: cddbd v1.5.2PL0 Copyright (c) Steve Scherf et al.
# Submitted via: audiograbber 1.83.01
#
DISCID=39038a05
DTITLE=Vanity Fare - Chicory Tip
DYEAR=1900
DGENRE=
TTITLE0=Early in the Morning
TTITLE1=Hitchin' A Ride
TTITLE2=Son of My Father
TTITLE3=What's your name 
TTITLE4=Good Grief Christina
EXTD=
EXTT0=
EXTT1=
EXTT2=
EXTT3=
EXTT4=
PLAYORDER=
